<?xml version="1.0" encoding="utf-8"?>
<!-- Generator: Adobe Illustrator 26.5.0, SVG Export Plug-In . SVG Version: 6.00 Build 0)  -->
<svg version="1.1" id="Layer_1" xmlns="http://www.w3.org/2000/svg" xmlns:xlink="http://www.w3.org/1999/xlink" x="0px" y="0px"
	 viewBox="0 0 90 73.9" style="enable-background:new 0 0 90 73.9;" xml:space="preserve">
<style type="text/css">
	.st0{fill:#FFFFFF;}
</style>
<g>
	<path class="st0" d="M8.9,67.5L8,69.8C8,70,7.9,70,7.8,70H6.4c-0.1,0-0.1,0-0.1-0.1v-0.1l3.5-9.7c0-0.1,0.1-0.2,0.2-0.2h0.6
		c0.4,0,0.8,0.1,1,0.3s0.5,0.5,0.6,1.1l3.1,8.5v0.1L15.2,70h-1.4c-0.2,0-0.3-0.1-0.3-0.2l-0.8-2.3C12.7,67.5,8.9,67.5,8.9,67.5z
		 M9.4,66h2.7l-1.4-3.9L9.4,66z"/>
	<path class="st0" d="M18,64.2c0.2-0.4,0.5-0.6,0.7-0.8s0.7-0.2,1.2-0.2h0.2c0.1,0,0.2,0.1,0.2,0.2v1.2c0,0.1-0.1,0.2-0.2,0.2h-0.5
		c-0.7,0-1.1,0.2-1.3,0.5c-0.2,0.3-0.3,0.8-0.3,1.5v3c0,0.1-0.1,0.2-0.2,0.2h-1.4c-0.1,0-0.2-0.1-0.2-0.2v-6.4
		c0-0.1,0.1-0.2,0.2-0.2h0.1C17.4,63.2,17.8,63.6,18,64.2z"/>
	<path class="st0" d="M23.2,64.2c0.2-0.4,0.5-0.6,0.7-0.8s0.7-0.2,1.2-0.2h0.2c0.1,0,0.2,0.1,0.2,0.2v1.2c0,0.1-0.1,0.2-0.2,0.2
		h-0.5c-0.7,0-1.1,0.2-1.3,0.5c-0.2,0.3-0.3,0.8-0.3,1.5v3c0,0.1-0.1,0.2-0.2,0.2h-1.4c-0.1,0-0.2-0.1-0.2-0.2v-6.4
		c0-0.1,0.1-0.2,0.2-0.2h0.1C22.6,63.2,23,63.6,23.2,64.2z"/>
	<path class="st0" d="M29.8,70.2c-1.1,0-1.9-0.3-2.5-1s-0.9-1.5-0.9-2.6s0.3-1.9,0.9-2.6c0.6-0.6,1.5-1,2.5-1c1.1,0,1.9,0.3,2.5,1
		c0.6,0.6,0.9,1.5,0.9,2.6s-0.3,1.9-0.9,2.6C31.8,69.9,30.9,70.2,29.8,70.2z M29.8,68.6c0.5,0,0.9-0.1,1.2-0.4s0.5-0.8,0.5-1.5
		s-0.2-1.2-0.5-1.5s-0.7-0.5-1.2-0.5s-0.9,0.2-1.2,0.5s-0.5,0.8-0.5,1.5s0.2,1.2,0.5,1.5S29.4,68.6,29.8,68.6z"/>
	<path class="st0" d="M37.1,67.9l1.3-4.5c0-0.2,0.1-0.2,0.3-0.2h0.2c0.5,0,0.9,0.1,1.1,0.3c0.2,0.2,0.4,0.6,0.6,1.2l0.9,3.2l1.3-4.5
		c0-0.2,0.2-0.2,0.3-0.2h1.2c0.1,0,0.2,0.1,0.1,0.2l-1.9,6.4c0,0.1-0.1,0.2-0.3,0.2h-1.4c-0.1,0-0.2-0.1-0.3-0.2l-1.3-4.4L38,69.8
		c0,0.1-0.1,0.2-0.3,0.2h-1.4c-0.1,0-0.2-0.1-0.3-0.2l-2-6.4v-0.1l0.1-0.1h0.3c0.5,0,0.9,0.1,1.1,0.3c0.2,0.2,0.4,0.6,0.6,1.2
		L37.1,67.9L37.1,67.9z"/>
	<path class="st0" d="M45.4,67.3c0.4,0.4,0.8,0.7,1.3,1c0.5,0.2,1.1,0.4,1.8,0.4s1.2-0.1,1.5-0.4c0.4-0.2,0.5-0.6,0.5-1
		c0-0.3-0.1-0.6-0.4-0.7s-0.6-0.3-1-0.5c-0.4-0.1-0.8-0.3-1.3-0.4c-0.4-0.2-0.9-0.3-1.3-0.6c-0.4-0.2-0.7-0.5-1-0.9
		s-0.4-0.9-0.4-1.4c0-0.6,0.2-1.1,0.5-1.6c0.3-0.4,0.7-0.7,1.3-1c0.5-0.2,1.1-0.3,1.8-0.3c0.5,0,0.9,0,1.3,0.1s0.8,0.2,1.1,0.3
		c0.4,0.1,0.6,0.3,0.7,0.5c0.1,0.2,0.1,0.5,0,0.8L51.7,62c0,0.1,0,0.1-0.1,0.2l-0.1,0.1c0,0-0.2,0-0.3-0.1c-0.4-0.2-0.8-0.4-1.2-0.5
		s-0.9-0.2-1.4-0.2s-0.9,0.1-1.2,0.3S47,62.2,47,62.6c0,0.3,0.1,0.6,0.4,0.8c0.3,0.2,0.6,0.4,1,0.5s0.8,0.3,1.3,0.4s0.9,0.3,1.3,0.5
		c0.4,0.2,0.7,0.5,1,0.9s0.4,0.8,0.4,1.4c0,0.9-0.3,1.7-1,2.3c-0.6,0.6-1.5,0.9-2.7,0.9c-0.9,0-1.6-0.1-2.1-0.4s-1-0.6-1.2-1
		S45,68.1,45,67.7c0-0.3,0.1-0.4,0.3-0.4C45.2,67.2,45.3,67.2,45.4,67.3z"/>
	<path class="st0" d="M55.3,69.2v3.5c0,0.1-0.1,0.2-0.2,0.2h-1.4c-0.1,0-0.2-0.1-0.2-0.2v-9.3c0-0.1,0.1-0.2,0.2-0.2h0.1
		c0.4,0,0.7,0.1,0.9,0.2s0.4,0.4,0.5,0.6c0.2-0.3,0.5-0.5,0.8-0.7c0.4-0.2,0.8-0.3,1.3-0.3c0.7,0,1.3,0.2,1.8,0.5s0.8,0.7,1.1,1.3
		c0.2,0.5,0.4,1.1,0.4,1.8c0,0.6-0.1,1.2-0.4,1.8c-0.2,0.5-0.6,1-1,1.3c-0.5,0.3-1,0.5-1.7,0.5c-0.4,0-0.9-0.1-1.2-0.2
		C55.8,69.8,55.5,69.5,55.3,69.2z M57,68.6c0.2,0,0.5-0.1,0.7-0.2c0.3-0.1,0.5-0.3,0.7-0.6c0.2-0.3,0.3-0.7,0.3-1.2
		s-0.1-0.9-0.3-1.2c-0.2-0.3-0.4-0.5-0.7-0.6s-0.5-0.2-0.8-0.2c-0.2,0-0.5,0-0.7,0.1c-0.3,0.1-0.5,0.3-0.7,0.5s-0.3,0.7-0.3,1.2
		s0.1,0.9,0.3,1.2c0.2,0.3,0.4,0.5,0.7,0.6C56.6,68.5,56.8,68.6,57,68.6z"/>
	<path class="st0" d="M63.4,67.3c0.1,0.5,0.3,0.8,0.6,1.1c0.4,0.3,0.8,0.4,1.4,0.4c0.5,0,0.8,0,1.1-0.1c0.3-0.1,0.6-0.2,0.9-0.4
		c0.1-0.1,0.2-0.1,0.3-0.1s0.2,0.1,0.2,0.3c0,0.3-0.1,0.5-0.3,0.8c-0.2,0.3-0.5,0.5-0.9,0.7s-0.9,0.3-1.6,0.3
		c-0.6,0-1.2-0.1-1.8-0.4c-0.5-0.3-1-0.7-1.3-1.2s-0.5-1.2-0.5-2c0-0.7,0.1-1.3,0.4-1.8s0.7-0.9,1.2-1.2s1.1-0.5,1.8-0.5
		s1.3,0.1,1.8,0.4s0.8,0.7,1,1.1c0.2,0.5,0.3,1,0.3,1.5v0.9c0,0.2-0.1,0.2-0.3,0.2C67.7,67.3,63.4,67.3,63.4,67.3z M63.4,66h2.9
		c0-0.2,0-0.4-0.1-0.6S66,65,65.8,64.8s-0.5-0.2-0.9-0.2c-0.5,0-0.8,0.1-1.1,0.4C63.6,65.2,63.5,65.6,63.4,66z"/>
	<path class="st0" d="M70.9,67.3c0.1,0.5,0.3,0.8,0.6,1.1c0.4,0.3,0.8,0.4,1.4,0.4c0.5,0,0.8,0,1.1-0.1c0.3-0.1,0.6-0.2,0.9-0.4
		c0.1-0.1,0.2-0.1,0.3-0.1s0.2,0.1,0.2,0.3c0,0.3-0.1,0.5-0.3,0.8c-0.2,0.3-0.5,0.5-0.9,0.7s-0.9,0.3-1.6,0.3
		c-0.6,0-1.2-0.1-1.8-0.4c-0.5-0.3-1-0.7-1.3-1.2s-0.5-1.2-0.5-2c0-0.7,0.1-1.3,0.4-1.8s0.7-0.9,1.2-1.2s1.1-0.5,1.8-0.5
		s1.3,0.1,1.8,0.4s0.8,0.7,1,1.1c0.2,0.5,0.3,1,0.3,1.5v0.9c0,0.2-0.1,0.2-0.3,0.2C75.2,67.3,70.9,67.3,70.9,67.3z M70.9,66h2.9
		c0-0.2,0-0.4-0.1-0.6s-0.2-0.4-0.4-0.6c-0.2-0.2-0.5-0.2-0.9-0.2c-0.5,0-0.8,0.1-1.1,0.4C71.2,65.2,71,65.6,70.9,66z"/>
	<path class="st0" d="M82,64v-3.8c0-0.1,0.1-0.2,0.2-0.2h0.1c0.5,0,0.8,0.1,1.1,0.4c0.2,0.2,0.4,0.6,0.4,1.2v8.3
		c0,0.1-0.1,0.2-0.2,0.2h-1.4C82.1,70,82,69.9,82,69.8v-0.7c-0.5,0.7-1.2,1-2.1,1c-0.7,0-1.2-0.2-1.7-0.5s-0.8-0.8-1-1.3
		s-0.4-1.1-0.4-1.8s0.1-1.3,0.4-1.8s0.6-1,1.1-1.3s1.1-0.5,1.7-0.5c0.5,0,0.9,0.1,1.2,0.3C81.5,63.5,81.8,63.7,82,64L82,64z
		 M80.3,68.6c0.2,0,0.5-0.1,0.7-0.2s0.5-0.3,0.7-0.6c0.2-0.3,0.3-0.7,0.3-1.2s-0.1-0.9-0.3-1.2s-0.4-0.5-0.7-0.5
		c-0.3-0.1-0.5-0.1-0.7-0.1s-0.5,0.1-0.8,0.2s-0.5,0.3-0.7,0.6c-0.2,0.3-0.3,0.7-0.3,1.2s0.1,0.9,0.3,1.2c0.2,0.3,0.4,0.5,0.7,0.6
		C79.8,68.5,80,68.6,80.3,68.6z"/>
</g>
<g>
	<path class="st0" d="M65.7,35.7c-1.8,4-4.8,7.5-8.8,10c-10.5,6.4-24.3,3.1-30.7-7.5c-3.5-5.8-4.1-12.6-2.2-18.6l-3.4-1.4
		c-2.4,7-1.7,15,2.4,21.9c7.5,12.3,23.5,16.2,35.7,8.8c5.9-3.6,9.8-9.2,11.6-15.3L65.7,35.7C65.7,35.7,65.7,35.7,65.7,35.7z
		 M33.7,7.3c9.6-5.9,21.9-3.6,28.8,4.9l5.1,0.8l-0.1-0.1C60,0.6,44-3.3,31.8,4.2c-1.2,0.7-2.3,1.5-3.3,2.4l5.1,0.8L33.7,7.3
		C33.7,7.3,33.7,7.3,33.7,7.3z"/>
	<polygon class="st0" points="51.6,27.4 51.7,27.3 51.6,27.4 0.6,5.7 89.3,20.4 89.3,20.4 89.3,20.4 37.8,44.9 	"/>
</g>
</svg>
