<?xml version="1.0" encoding="UTF-8"?>
<svg id="Layer_1" data-name="Layer 1" xmlns="http://www.w3.org/2000/svg" width="113.7" height="67.31" viewBox="0 0 113.7 67.31">
  <path d="M83.22,45.37c-2.28,5.11-6.07,9.59-11.18,12.72-13.44,8.2-30.96,3.91-39.13-9.58-4.48-7.39-5.22-16.01-2.76-23.64l-4.31-1.83c-3.01,8.98-2.2,19.18,3.08,27.91,9.51,15.71,29.9,20.7,45.54,11.15,7.51-4.58,12.55-11.68,14.73-19.56l-5.97,2.84ZM42.45,9.22c12.23-7.47,27.85-4.58,36.71,6.18l6.46,1.07s-.04-.07-.06-.1C76.06,.66,55.67-4.33,40.03,5.22c-1.49,.91-2.88,1.91-4.17,3.01l6.48,1.07s.08-.05,.12-.08Z" style="fill: #fff;"/>
  <polygon points="65.35 34.72 65.36 34.72 65.35 34.72 .34 7.1 113.36 25.83 113.34 25.84 113.36 25.83 47.67 57.08 65.35 34.72" style="fill: #fff;"/>
</svg>