<?xml version="1.0" encoding="UTF-8"?>
<svg id="Layer_1" data-name="Layer 1" xmlns="http://www.w3.org/2000/svg" width="95.28" height="73.9" viewBox="0 0 95.28 73.9">
  <g>
    <path d="M3.63,66.23l-1.1,2.8c0,.24-.12,.24-.24,.24H.59c-.08,0-.12-.04-.12-.12v-.12l4.26-11.81c0-.12,.12-.24,.24-.24h.73c.49,0,.97,.12,1.22,.37s.61,.61,.73,1.34l3.77,10.35v.12l-.12,.12h-1.7c-.24,0-.37-.12-.37-.24l-.97-2.8H3.63Zm.61-1.84h3.29l-1.7-4.75-1.58,4.75h0Z" style="fill: #fff;"/>
    <path d="M14.71,62.21c.24-.49,.61-.73,.85-.97s.85-.24,1.46-.24h.24c.12,0,.24,.12,.24,.24v1.46c0,.12-.12,.24-.24,.24h-.61c-.85,0-1.34,.24-1.58,.61s-.37,.97-.37,1.83v3.65c0,.16-.08,.24-.24,.24h-1.7c-.12,0-.24-.12-.24-.24v-7.79c0-.12,.12-.24,.24-.24h.12c1.1,0,1.58,.49,1.83,1.22h0Z" style="fill: #fff;"/>
    <path d="M21.04,62.21c.24-.49,.61-.73,.85-.97s.85-.24,1.46-.24h.24c.12,0,.24,.12,.24,.24v1.46c0,.12-.12,.24-.24,.24h-.61c-.85,0-1.34,.24-1.58,.61s-.37,.97-.37,1.83v3.65c0,.12-.12,.24-.24,.24h-1.7c-.12,0-.24-.12-.24-.24v-7.79c0-.12,.12-.24,.24-.24h.12c1.1,0,1.58,.49,1.83,1.22h0Z" style="fill: #fff;"/>
    <path d="M29.07,69.52c-1.34,0-2.31-.37-3.04-1.22s-1.1-1.83-1.1-3.16,.37-2.31,1.1-3.16c.73-.73,1.83-1.22,3.04-1.22,1.34,0,2.31,.37,3.04,1.22,.73,.73,1.1,1.83,1.1,3.16s-.37,2.31-1.1,3.16c-.61,.85-1.7,1.22-3.04,1.22Zm0-1.95c.61,0,1.1-.12,1.46-.49s.61-.97,.61-1.83-.24-1.46-.61-1.83-.85-.61-1.46-.61-1.1,.24-1.46,.61-.61,.97-.61,1.83,.24,1.46,.61,1.83,.97,.49,1.46,.49Z" style="fill: #fff;"/>
    <path d="M37.96,66.73l1.58-5.48c0-.24,.12-.24,.37-.24h.24c.61,0,1.1,.12,1.34,.37,.24,.24,.49,.73,.73,1.46l1.1,3.9,1.58-5.48c0-.24,.24-.24,.37-.24h1.46c.12,0,.24,.12,.12,.24l-2.31,7.79c0,.12-.12,.24-.37,.24h-1.7c-.12,0-.24-.12-.37-.24l-1.58-5.36-1.46,5.36c0,.12-.12,.24-.37,.24h-1.7c-.12,0-.24-.12-.37-.24l-2.43-7.79v-.12l.12-.12h.37c.61,0,1.1,.12,1.34,.37,.24,.24,.49,.73,.73,1.46l1.22,3.9h0v-.02Z" style="fill: #fff;"/>
    <path d="M48.06,66c.49,.49,.97,.85,1.58,1.22,.61,.24,1.34,.49,2.19,.49s1.46-.12,1.83-.49c.49-.24,.61-.73,.61-1.22,0-.37-.12-.73-.49-.85s-.73-.37-1.22-.61c-.49-.12-.97-.37-1.58-.49-.49-.24-1.1-.37-1.58-.73-.49-.24-.85-.61-1.22-1.1s-.49-1.1-.49-1.7c0-.73,.24-1.34,.61-1.95,.37-.49,.85-.85,1.58-1.22,.61-.24,1.34-.37,2.19-.37,.61,0,1.1,0,1.58,.12s.97,.24,1.34,.37c.49,.12,.73,.37,.85,.61s.12,.61,0,.97l-.12,.49c0,.08-.04,.16-.12,.24l-.12,.12s-.24,0-.37-.12c-.49-.24-.97-.49-1.46-.61s-1.1-.24-1.7-.24-1.1,.12-1.46,.37-.49,.49-.49,.97c0,.37,.12,.73,.49,.97,.37,.24,.73,.49,1.22,.61s.97,.37,1.58,.49,1.1,.37,1.58,.61c.49,.24,.85,.61,1.22,1.1s.49,.97,.49,1.7c0,1.1-.37,2.07-1.22,2.8-.73,.73-1.83,1.1-3.29,1.1-1.1,0-1.95-.12-2.56-.49s-1.22-.73-1.46-1.22-.49-.97-.49-1.46c0-.37,.12-.49,.37-.49-.12-.12,0-.12,.12,0h0Z" style="fill: #fff;"/>
    <path d="M60.12,68.31v4.26c0,.12-.12,.24-.24,.24h-1.7c-.12,0-.24-.12-.24-.24v-11.32c0-.12,.12-.24,.24-.24h.12c.49,0,.85,.12,1.1,.24s.49,.49,.61,.73c.24-.37,.61-.61,.97-.85,.49-.24,.97-.37,1.58-.37,.85,0,1.58,.24,2.19,.61s.97,.85,1.34,1.58c.24,.61,.49,1.34,.49,2.19,0,.73-.12,1.46-.49,2.19-.24,.61-.73,1.22-1.22,1.58-.61,.37-1.22,.61-2.07,.61-.49,0-1.1-.12-1.46-.24-.61-.24-.97-.61-1.22-.97Zm2.07-.73c.24,0,.61-.12,.85-.24,.37-.12,.61-.37,.85-.73,.24-.37,.37-.85,.37-1.46s-.12-1.1-.37-1.46c-.24-.37-.49-.61-.85-.73s-.61-.24-.97-.24c-.24,0-.61,0-.85,.12-.37,.12-.61,.37-.85,.61s-.37,.85-.37,1.46,.12,1.1,.37,1.46c.24,.37,.49,.61,.85,.73,.49,.37,.73,.49,.97,.49h0Z" style="fill: #fff;"/>
    <path d="M69.98,66c.12,.61,.37,.97,.73,1.34,.49,.37,.97,.49,1.7,.49,.61,0,.97,0,1.34-.12,.37-.12,.73-.24,1.1-.49,.12-.12,.24-.12,.37-.12s.24,.12,.24,.37c0,.37-.12,.61-.37,.97-.24,.37-.61,.61-1.1,.85s-1.1,.37-1.95,.37c-.73,0-1.46-.12-2.19-.49-.61-.37-1.22-.85-1.58-1.46s-.61-1.46-.61-2.43c0-.85,.12-1.58,.49-2.19s.85-1.1,1.46-1.46,1.34-.61,2.19-.61,1.58,.12,2.19,.49,.97,.85,1.22,1.34c.24,.61,.37,1.22,.37,1.83v1.1c0,.24-.12,.24-.37,.24h-5.23v-.02Zm0-1.58h3.53c0-.24,0-.49-.12-.73s-.24-.49-.49-.73-.61-.24-1.1-.24c-.61,0-.97,.12-1.34,.49-.24,.24-.37,.73-.49,1.22h0Z" style="fill: #fff;"/>
    <path d="M79.1,66c.12,.61,.37,.97,.73,1.34,.49,.37,.97,.49,1.7,.49,.61,0,.97,0,1.34-.12,.37-.12,.73-.24,1.1-.49,.12-.12,.24-.12,.37-.12s.24,.12,.24,.37c0,.37-.12,.61-.37,.97-.24,.37-.61,.61-1.1,.85s-1.1,.37-1.95,.37c-.73,0-1.46-.12-2.19-.49-.61-.37-1.22-.85-1.58-1.46s-.61-1.46-.61-2.43c0-.85,.12-1.58,.49-2.19s.85-1.1,1.46-1.46,1.34-.61,2.19-.61,1.58,.12,2.19,.49,.97,.85,1.22,1.34c.24,.61,.37,1.22,.37,1.83v1.1c0,.24-.12,.24-.37,.24h-5.23v-.02Zm0-1.58h3.53c0-.24,0-.49-.12-.73s-.24-.49-.49-.73c-.24-.24-.61-.24-1.1-.24-.61,0-.97,.12-1.34,.49-.12,.24-.37,.73-.49,1.22h0Z" style="fill: #fff;"/>
    <path d="M92.62,61.98v-4.63c0-.12,.12-.24,.24-.24h.12c.61,0,.97,.12,1.34,.49,.24,.24,.49,.73,.49,1.46v10.1c0,.12-.12,.24-.24,.24h-1.7c-.16-.08-.24-.2-.24-.37v-.85c-.61,.85-1.46,1.22-2.56,1.22-.85,0-1.46-.24-2.07-.61s-.97-.97-1.22-1.58-.49-1.34-.49-2.19,.12-1.58,.49-2.19,.73-1.22,1.34-1.58,1.34-.61,2.07-.61c.61,0,1.1,.12,1.46,.37,.37,.37,.73,.61,.97,.97h0Zm-2.07,5.6c.24,0,.61-.12,.85-.24s.61-.37,.85-.73c.24-.37,.37-.85,.37-1.46s-.12-1.1-.37-1.46-.49-.61-.85-.61c-.37-.12-.61-.12-.85-.12s-.61,.12-.97,.24-.61,.37-.85,.73c-.24,.37-.37,.85-.37,1.46s.12,1.1,.37,1.46c.24,.37,.49,.61,.85,.73,.37-.12,.61,0,.97,0Z" style="fill: #fff;"/>
  </g>
  <g>
    <path d="M68.34,35.7c-1.8,4-4.8,7.5-8.8,10-10.5,6.4-24.3,3.1-30.7-7.5-3.5-5.8-4.1-12.6-2.2-18.6l-3.4-1.4c-2.4,7-1.7,15,2.4,21.9,7.5,12.3,23.5,16.2,35.7,8.8,5.9-3.6,9.8-9.2,11.6-15.3l-4.6,2.1h0ZM36.34,7.3c9.6-5.9,21.9-3.6,28.8,4.9l5.1,.8-.1-.1C62.64,.6,46.64-3.3,34.44,4.2c-1.2,.7-2.3,1.5-3.3,2.4l5.1,.8,.1-.1h0Z" style="fill: #fff;"/>
    <polygon points="54.24 27.4 54.34 27.3 54.24 27.4 3.24 5.7 91.94 20.4 91.94 20.4 91.94 20.4 40.44 44.9 54.24 27.4" style="fill: #fff;"/>
  </g>
</svg>