<?xml version="1.0" encoding="UTF-8"?>
<svg id="Layer_1" data-name="Layer 1" xmlns="http://www.w3.org/2000/svg" width="89.5" height="54.8" viewBox="0 0 89.5 54.8">
  <path d="M65.4,36.8c-1.8,4.1-4.9,7.7-9,10.2-10.8,6.6-24.9,3.1-31.5-7.7-3.6-5.9-4.2-12.8-2.2-18.9l-3.5-1.5c-2.4,7.2-1.8,15.4,2.5,22.4,7.7,12.6,24,16.6,36.6,8.9,6-3.7,10.1-9.4,11.8-15.7,.1,0-4.7,2.3-4.7,2.3ZM32.7,7.8c9.8-6,22.4-3.7,29.5,4.9l5.2,.9s0-.1-.1-.1C59.7,1,43.3-3,30.7,4.6c-1.2,.7-2.3,1.5-3.3,2.4l5.3,.8c-.1,.1-.1,0,0,0Z" style="fill: #ef4823;"/>
  <path d="M37.5,45.2c4.4-5.7,8.8-11.3,13.2-16.9L.4,6.8l88.7,14.4-51.6,24h0Z" style="fill: #00afb5;"/>
  <path d="M50.6,28.2l.2,.1c-4.4,5.7-8.8,11.3-13.2,16.9l51.6-24.1h-.2c0,.1-38.4,7.1-38.4,7.1Z" style="fill: #63c8d3;"/>
</svg>