<?xml version="1.0" encoding="UTF-8"?>
<svg id="Layer_1" data-name="Layer 1" xmlns="http://www.w3.org/2000/svg" width="89.1" height="52.9" viewBox="0 0 89.1 52.9">
  <path d="M65.2,35.7c-1.8,4-4.8,7.5-8.8,10-10.5,6.4-24.3,3.1-30.7-7.5-3.5-5.8-4.1-12.6-2.2-18.6l-3.4-1.4c-2.4,7-1.7,15.1,2.4,21.9,7.5,12.3,23.5,16.2,35.7,8.8,5.9-3.6,9.8-9.2,11.6-15.3l-4.6,2.1h0ZM33.2,7.3c9.6-5.9,21.9-3.6,28.8,4.9l5.1,.8-.1-.1C59.6,.6,43.6-3.4,31.3,4.1c-1.2,.7-2.3,1.5-3.3,2.4l5.1,.8h.1Z" style="fill: #0b0d0e;"/>
  <polygon points="51.2 27.3 51.2 27.3 51.2 27.3 .2 5.6 88.9 20.3 88.9 20.3 88.9 20.3 37.4 44.8 51.2 27.3" style="fill: #0b0d0e;"/>
</svg>