<?xml version="1.0" encoding="UTF-8"?>
<svg id="Layer_1" data-name="Layer 1" xmlns="http://www.w3.org/2000/svg" width="88.7" height="52.7" viewBox="0 0 88.7 52.7">
  <path d="M65,35.5c-1.8,4-4.8,7.5-8.8,10-10.5,6.5-24.2,3.1-30.6-7.5-3.5-5.8-4.1-12.6-2.2-18.6l-3.4-1.4c-2.4,7-1.7,15.1,2.4,21.9,7.5,12.3,23.5,16.2,35.7,8.8,5.9-3.6,9.8-9.2,11.6-15.3l-4.7,2.1h0ZM33,7.2c9.6-5.9,21.9-3.6,28.8,4.9l5.1,.8-.1-.1C59.4,.4,43.4-3.5,31.1,4c-1.2,.7-2.3,1.5-3.3,2.4l5.1,.8s.1,0,.1,0h0Z" style="fill: #022f40;"/>
  <polygon points="51 27.2 51 27.2 51 27.2 0 5.5 88.7 20.2 88.7 20.2 88.7 20.2 37.1 44.7 51 27.2" style="fill: #022f40;"/>
</svg>