<?xml version="1.0" encoding="UTF-8"?>
<svg id="Layer_1" data-name="Layer 1" xmlns="http://www.w3.org/2000/svg" width="88.7" height="73" viewBox="0 0 88.7 73">
  <g style="isolation: isolate;">
    <path d="M8.2,67.4l-.8,2.3c0,.2-.1,.2-.3,.2h-1.3q-.1,0-.1-.1v-.1l3.5-9.7c0-.1,.1-.2,.2-.2h.6c.4,0,.8,.1,1,.3s.5,.5,.6,1.1l3.1,8.5v.1l-.1,.1h-1.4c-.2,0-.3-.1-.3-.2l-.9-2.3h-3.8Zm.6-1.5h2.7l-1.4-3.9-1.3,3.9Z"/>
    <path d="M17.3,64.2c.2-.4,.5-.6,.7-.8s.7-.2,1.2-.2h.2c.1,0,.2,.1,.2,.2v1.2c0,.1-.1,.2-.2,.2h-.4c-.7,0-1.1,.2-1.3,.5-.2,.3-.3,.8-.3,1.5v3c0,.1-.1,.2-.2,.2h-1.4c-.1,0-.2-.1-.2-.2v-6.4c0-.1,.1-.2,.2-.2h.2c.7,0,1.2,.3,1.3,1Z"/>
    <path d="M22.6,64.2c.2-.4,.5-.6,.7-.8s.7-.2,1.2-.2h.2c.1,0,.2,.1,.2,.2v1.2c0,.1-.1,.2-.2,.2h-.5c-.7,0-1.1,.2-1.3,.5-.2,.3-.3,.8-.3,1.5v3c0,.1-.1,.2-.2,.2h-1.4c-.1,0-.2-.1-.2-.2v-6.4c0-.1,.1-.2,.2-.2h.1c.9,0,1.3,.3,1.5,1Z"/>
    <path d="M29.2,70.1c-1.1,0-1.9-.3-2.5-1s-.9-1.5-.9-2.6,.3-1.9,.9-2.6c.6-.6,1.5-1,2.5-1,1.1,0,1.9,.3,2.5,1,.6,.6,.9,1.5,.9,2.6s-.3,1.9-.9,2.6c-.6,.7-1.4,1-2.5,1Zm0-1.6c.5,0,.9-.1,1.2-.4s.5-.8,.5-1.5-.2-1.2-.5-1.5-.7-.5-1.2-.5-.9,.2-1.2,.5-.5,.8-.5,1.5,.2,1.2,.5,1.5,.7,.4,1.2,.4Z"/>
    <path d="M36.5,67.9l1.3-4.5c0-.2,.1-.2,.3-.2h.2c.5,0,.9,.1,1.1,.3,.2,.2,.4,.6,.6,1.2l.9,3.2,1.3-4.5c0-.2,.2-.2,.3-.2h1.2c.1,0,.2,.1,.1,.2l-1.9,6.4c0,.1-.1,.2-.3,.2h-1.4c-.1,0-.2-.1-.3-.2l-1.3-4.4-1.3,4.4c0,.1-.1,.2-.3,.2h-1.4c-.1,0-.2-.1-.3-.2l-2-6.4v-.1l.1-.1h.3c.5,0,.9,.1,1.1,.3,.2,.2,.4,.6,.6,1.2l1.1,3.2Z"/>
    <path d="M44.7,67.2c.4,.4,.8,.7,1.3,1,.5,.2,1.1,.4,1.8,.4s1.2-.1,1.5-.4c.4-.2,.5-.6,.5-1,0-.3-.1-.6-.4-.7s-.6-.3-1-.5c-.4-.1-.8-.3-1.3-.4-.4-.2-.9-.3-1.3-.6-.4-.2-.7-.5-1-.9s-.4-.9-.4-1.4c0-.6,.2-1.1,.5-1.6,.3-.4,.7-.7,1.3-1,.5-.2,1.1-.3,1.8-.3,.5,0,.9,0,1.3,.1s.8,.2,1.1,.3c.4,.1,.6,.3,.7,.5,.1,.2,.1,.5,0,.8l-.1,.4q0,.1-.1,.2l-.1,.1s-.2,0-.3-.1c-.4-.2-.8-.4-1.2-.5s-.9-.2-1.4-.2-.9,.1-1.2,.3-.5,.5-.5,.9c0,.3,.1,.6,.4,.8,.3,.2,.6,.4,1,.5s.8,.3,1.3,.4,.9,.3,1.3,.5c.4,.2,.7,.5,1,.9s.4,.8,.4,1.4c0,.9-.3,1.7-1,2.3-.6,.6-1.5,.9-2.7,.9-.9,0-1.6-.1-2.1-.4s-1-.6-1.2-1-.4-.8-.4-1.2c0-.3,.1-.4,.3-.4,.1-.2,.2-.2,.2-.1Z"/>
    <path d="M54.7,69.2v3.5c0,.1-.1,.2-.2,.2h-1.4c-.1,0-.2-.1-.2-.2v-9.3c0-.1,.1-.2,.2-.2h.1c.4,0,.7,.1,.9,.2s.4,.4,.5,.6c.2-.3,.5-.5,.8-.7,.4-.2,.8-.3,1.3-.3,.7,0,1.3,.2,1.8,.5s.8,.7,1.1,1.3c.2,.5,.4,1.1,.4,1.8,0,.6-.1,1.2-.4,1.8-.2,.5-.6,1-1,1.3-.5,.3-1,.5-1.7,.5-.4,0-.9-.1-1.2-.2-.5-.3-.8-.5-1-.8Zm1.7-.7c.2,0,.5-.1,.7-.2,.3-.1,.5-.3,.7-.6,.2-.3,.3-.7,.3-1.2s-.1-.9-.3-1.2c-.2-.3-.4-.5-.7-.6s-.5-.2-.8-.2c-.2,0-.5,0-.7,.1-.3,.1-.5,.3-.7,.5s-.3,.7-.3,1.2,.1,.9,.3,1.2c.2,.3,.4,.5,.7,.6,.3,.3,.6,.4,.8,.4Z"/>
    <path d="M62.8,67.2c.1,.5,.3,.8,.6,1.1,.4,.3,.8,.4,1.4,.4,.5,0,.8,0,1.1-.1,.3-.1,.6-.2,.9-.4,.1-.2,.2-.2,.3-.2s.2,.1,.2,.3c0,.3-.1,.5-.3,.8-.2,.3-.5,.5-.9,.7s-.9,.3-1.6,.3c-.6,0-1.2-.1-1.8-.4-.5-.3-1-.7-1.3-1.2s-.5-1.2-.5-2c0-.7,.1-1.3,.4-1.8s.7-.9,1.2-1.2,1.1-.5,1.8-.5,1.3,.1,1.8,.4,.8,.7,1,1.1c.2,.5,.3,1,.3,1.5v.9c0,.2-.1,.2-.3,.2h-4.3v.1Zm0-1.3h2.9c0-.2,0-.4-.1-.6s-.2-.4-.4-.6c-.2-.2-.5-.2-.9-.2-.5,0-.8,.1-1.1,.4-.2,.2-.4,.6-.4,1Z"/>
    <path d="M70.3,67.2c.1,.5,.3,.8,.6,1.1,.4,.3,.8,.4,1.4,.4,.5,0,.8,0,1.1-.1,.3-.1,.6-.2,.9-.4,.1-.1,.2-.1,.3-.1s.2,.1,.2,.3c0,.3-.1,.5-.3,.8-.2,.3-.5,.5-.9,.7s-.9,.3-1.6,.3c-.6,0-1.2-.1-1.8-.4-.5-.3-1-.7-1.3-1.2s-.5-1.2-.5-2c0-.7,.1-1.3,.4-1.8s.7-.9,1.2-1.2,1.1-.5,1.8-.5,1.3,.1,1.8,.4,.8,.7,1,1.1c.2,.5,.3,1,.3,1.5v.9c0,.2-.1,.2-.3,.2,0,0-4.3,0-4.3,0Zm0-1.3h2.9c0-.2,0-.4-.1-.6s-.2-.4-.4-.6c-.2-.2-.5-.2-.9-.2-.5,0-.8,.1-1.1,.4-.2,.2-.3,.6-.4,1Z"/>
    <path d="M81.3,63.9v-3.8c0-.1,.1-.2,.2-.2h.1c.5,0,.8,.1,1.1,.4,.2,.2,.4,.6,.4,1.2v8.3c0,.1-.1,.2-.2,.2h-1.4c-.1,0-.2-.1-.2-.2v-.7c-.5,.7-1.2,1-2.1,1-.7,0-1.2-.2-1.7-.5s-.8-.8-1-1.3-.4-1.1-.4-1.8,.1-1.3,.4-1.8,.6-1,1.1-1.3,1.1-.5,1.7-.5c.5,0,.9,.1,1.2,.3,.4,.2,.7,.4,.8,.7Zm-1.7,4.6c.2,0,.5-.1,.7-.2s.5-.3,.7-.6c.2-.3,.3-.7,.3-1.2s-.1-.9-.3-1.2-.4-.5-.7-.5c-.3-.1-.5-.1-.7-.1s-.5,.1-.8,.2-.5,.3-.7,.6c-.2,.3-.3,.7-.3,1.2s.1,.9,.3,1.2c.2,.3,.4,.5,.7,.6,.4-.1,.6,0,.8,0Z"/>
  </g>
  <g>
    <path d="M65,35.6c-1.8,4-4.8,7.5-8.8,10-10.5,6.4-24.2,3.1-30.6-7.5-3.5-5.8-4.1-12.6-2.2-18.6l-3.4-1.4c-2.4,7-1.7,15,2.4,21.9,7.5,12.3,23.5,16.2,35.7,8.8,5.9-3.6,9.8-9.2,11.6-15.3l-4.7,2.1h0ZM33,7.3c9.6-5.9,21.9-3.6,28.8,4.8l5.1,.8-.1-.1C59.4,.5,43.4-3.4,31.1,4.1c-1.2,.7-2.3,1.5-3.3,2.4l5.1,.8h.1Z" style="fill: #0b0d0e;"/>
    <polygon points="51 27.3 51 27.3 51 27.3 0 5.6 88.7 20.3 88.7 20.3 88.7 20.3 37.1 44.8 51 27.3" style="fill: #0b0d0e;"/>
  </g>
</svg>