<svg width="233" height="244" viewBox="0 0 233 244" fill="none" xmlns="http://www.w3.org/2000/svg">
<path fill-rule="evenodd" clip-rule="evenodd" d="M115.661 222.675C168.237 222.921 211.057 180.499 211.302 127.923C211.548 75.3473 169.126 32.5272 116.55 32.2816C63.9746 32.0359 21.1544 74.4579 20.9088 127.034C20.6632 179.609 63.0851 222.429 115.661 222.675Z" stroke="#3AD29F" stroke-width="0.641063" stroke-dasharray="3.85 3.85"/>
<path fill-rule="evenodd" clip-rule="evenodd" d="M115.566 242.868C179.295 243.166 231.198 191.746 231.496 128.018C231.793 64.2894 180.373 12.3862 116.645 12.0885C52.9164 11.7907 1.01322 63.2112 0.715496 126.939C0.41777 190.668 51.8383 242.571 115.566 242.868Z" stroke="#3AD29F" stroke-width="0.641063" stroke-dasharray="3.85 3.85"/>
<path d="M193.162 164.601C193.228 151.166 183.059 139.889 169.69 138.568C156.32 137.248 144.142 146.319 141.579 159.507L61.589 156.963L62.4031 170.711C62.4031 170.711 50.8725 196.98 110.794 204.273L110.67 230.877L179.981 231.201L180.188 186.968C188.174 182.341 193.111 173.83 193.162 164.601Z" fill="url(#paint0_linear_0_138)"/>
<path d="M65.1473 171.301C65.1473 171.301 54.1059 196.456 111.491 203.449L111.372 228.938L177.75 229.248L178.065 161.748L64.3562 158.133L65.1473 171.301Z" fill="#FFCBB4"/>
<path d="M98.8133 66.2684C95.1837 71.9371 87.6574 73.6105 81.9677 70.0137L46.438 46.3621C40.7692 42.7325 39.0959 35.2061 42.6927 29.5165C46.3217 23.8556 53.8384 22.1831 59.5254 25.7712L95.0552 49.4227C100.729 53.0482 102.408 60.5754 98.8133 66.2684Z" fill="url(#paint1_linear_0_138)"/>
<path d="M96.8449 64.9771C93.4711 70.2463 86.4753 71.8018 81.1866 68.4587L48.1493 46.4567C42.88 43.0828 41.3246 36.087 44.6677 30.7983C48.0415 25.5291 55.0373 23.9736 60.326 27.3167L93.357 49.3059C98.6363 52.6781 100.196 59.684 96.8449 64.9771Z" fill="#FFCBB4"/>
<path d="M165.332 190.258C179.099 190.322 190.311 179.214 190.376 165.447C190.44 151.68 179.332 140.467 165.565 140.403C151.797 140.338 140.585 151.447 140.521 165.214C140.456 178.981 151.565 190.193 165.332 190.258Z" fill="#FFCBB4"/>
<path d="M161.729 0.897569L66.2371 0.451449C64.0686 0.441318 62.3024 2.19104 62.2923 4.35957L61.4575 183.041C61.4474 185.21 63.1971 186.976 65.3656 186.986L160.857 187.432C163.026 187.442 164.792 185.692 164.802 183.524L165.637 4.84238C165.647 2.67385 163.897 0.9077 161.729 0.897569Z" fill="url(#paint2_linear_0_138)"/>
<path d="M159.871 3.41148L68.0652 2.98258C65.6506 2.9713 63.6841 4.91957 63.6728 7.33416L62.8657 180.086C62.8544 182.5 64.8027 184.467 67.2173 184.478L159.023 184.907C161.437 184.918 163.404 182.97 163.415 180.556L164.222 7.80391C164.234 5.38932 162.285 3.42276 159.871 3.41148Z" fill="white"/>
<path d="M139.208 7.86656C138.588 11.8409 135.162 14.769 131.139 14.762L96.4135 14.5998C92.3925 14.5677 88.9957 11.608 88.4135 7.62925L70.0152 7.5433C69.0021 7.53857 68.0285 7.935 67.3085 8.64766C66.5885 9.36033 66.1814 10.3299 66.1766 11.3429L65.4069 176.094C65.4022 177.107 65.7986 178.081 66.5113 178.801C67.224 179.521 68.1936 179.928 69.2066 179.933L157.076 180.343C158.089 180.348 159.063 179.952 159.783 179.239C160.503 178.526 160.91 177.557 160.915 176.544L161.684 11.7923C161.689 10.7793 161.293 9.80563 160.58 9.08568C159.867 8.36572 158.898 7.95854 157.885 7.95381L139.208 7.86656Z" fill="#E9ECFF"/>
<path d="M124.642 9.96857L103.516 9.86988C103.162 9.86822 102.874 10.1539 102.872 10.5079L102.872 10.6265C102.87 10.9806 103.156 11.2689 103.51 11.2706L124.636 11.3693C124.99 11.3709 125.278 11.0853 125.28 10.7312L125.28 10.6126C125.282 10.2586 124.996 9.97023 124.642 9.96857Z" fill="#DBDBDB"/>
<path d="M130.036 11.599C130.612 11.6017 131.082 11.1364 131.085 10.5596C131.087 9.9829 130.622 9.51319 130.045 9.51049C129.469 9.5078 128.999 9.97314 128.996 10.5499C128.993 11.1266 129.459 11.5963 130.036 11.599Z" fill="#DBDBDB"/>
<path d="M181.54 169.803C174.298 171.442 169.355 166.701 167.716 159.462L151.382 97.6604C149.762 90.3935 154.313 83.1821 161.57 81.5178C168.837 79.8978 176.048 84.4492 177.713 91.7061L190.982 155.087C192.621 162.329 188.779 168.164 181.54 169.803Z" fill="url(#paint3_linear_0_138)"/>
<path d="M175.841 93.2083C174.459 87.0977 168.385 83.2643 162.274 84.6461C156.164 86.0279 152.33 92.1018 153.712 98.2124L168.688 164.438C170.07 170.549 176.144 174.382 182.254 173.001C188.365 171.619 192.199 165.545 190.817 159.434L175.841 93.2083Z" fill="#FFCBB4"/>
<path d="M190.01 220.965L95.1341 220.521L95.0308 242.638L189.907 243.081L190.01 220.965Z" fill="url(#paint4_linear_0_138)"/>
<path d="M187.434 223.517L97.6864 223.098L97.6056 240.406L187.353 240.826L187.434 223.517Z" fill="#4D8AF0"/>
<path d="M84.67 132.418C81.0845 138.02 73.6482 139.674 68.0266 136.12L44.1971 120.543C38.5957 116.957 36.9419 109.521 40.4957 103.899C44.0813 98.2978 51.5176 96.644 57.1392 100.198L80.9687 115.775C86.57 119.361 88.2238 126.797 84.67 132.418Z" fill="url(#paint5_linear_0_138)"/>
<path d="M78.5168 165.126C74.8993 170.779 67.3953 172.448 61.7226 168.862L46.9679 157.997C41.3151 154.38 39.6458 146.876 43.2319 141.203C46.8494 135.55 54.3535 133.881 60.0262 137.467L74.7809 148.335C80.4317 151.952 82.1008 159.454 78.5168 165.126Z" fill="url(#paint6_linear_0_138)"/>
<g opacity="0.5">
<path d="M113.409 122.773C129.331 122.848 142.298 110.001 142.372 94.0796C142.447 78.1582 129.6 65.191 113.679 65.1166C97.7574 65.0423 84.7902 77.8888 84.7158 93.8102C84.6415 109.732 97.488 122.699 113.409 122.773Z" fill="url(#paint7_linear_0_138)"/>
</g>
<path d="M113.417 121.078C128.402 121.148 140.607 109.057 140.677 94.0717C140.747 79.0867 128.656 66.8822 113.671 66.8122C98.6859 66.7422 86.4814 78.8332 86.4114 93.8181C86.3414 108.803 98.4324 121.008 113.417 121.078Z" fill="#69F0AE"/>
<path d="M101.785 90.268L111.915 99.6428L126.428 78.5137L131.498 82.778L111.875 108.124L97.5363 91.9469L101.785 90.268Z" fill="white"/>
<path d="M77.325 164.316C73.9512 169.585 66.9554 171.141 61.6666 167.797L47.9053 157.681C42.6361 154.307 41.0806 147.312 44.4237 142.023C47.7975 136.754 54.7933 135.198 60.082 138.541L73.8401 148.677C79.0988 152.049 80.6545 159.03 77.325 164.316Z" fill="#FFCBB4"/>
<path d="M83.3598 131.563C79.986 136.832 72.9902 138.388 67.7014 135.045L45.2812 120.388C40.012 117.014 38.4565 110.018 41.7996 104.729C45.1734 99.4599 52.1692 97.9044 57.458 101.248L79.8782 115.905C85.1474 119.278 86.7029 126.274 83.3598 131.563Z" fill="#FFCBB4"/>
<path d="M91.002 99.8656C87.3988 105.492 79.9289 107.152 74.2815 103.583L44.0838 83.7191C38.4579 80.1159 36.7973 72.646 40.3668 66.9986C43.97 61.3727 51.4398 59.7121 57.0872 63.2816L87.285 83.1452C92.9109 86.7484 94.5715 94.2183 91.002 99.8656Z" fill="url(#paint8_linear_0_138)"/>
<path d="M89.3977 98.8324C86.0239 104.102 79.0281 105.657 73.7393 102.314L45.4557 83.7094C40.1865 80.3356 38.631 73.3398 41.9741 68.051C45.348 62.7818 52.3438 61.2263 57.6325 64.5695L85.9129 83.174C91.1833 86.5468 92.7402 93.5428 89.3977 98.8324Z" fill="#FFCBB4"/>
<defs>
<linearGradient id="paint0_linear_0_138" x1="127.052" y1="230.969" x2="127.485" y2="138.26" gradientUnits="userSpaceOnUse">
<stop stop-color="#808080" stop-opacity="0.25"/>
<stop offset="0.54" stop-color="#808080" stop-opacity="0.12"/>
<stop offset="1" stop-color="#808080" stop-opacity="0.1"/>
</linearGradient>
<linearGradient id="paint1_linear_0_138" x1="70.638" y1="71.8295" x2="70.8616" y2="23.9618" gradientUnits="userSpaceOnUse">
<stop stop-color="#808080" stop-opacity="0.25"/>
<stop offset="0.54" stop-color="#808080" stop-opacity="0.12"/>
<stop offset="1" stop-color="#808080" stop-opacity="0.1"/>
</linearGradient>
<linearGradient id="paint2_linear_0_138" x1="113.111" y1="187.206" x2="113.983" y2="0.671307" gradientUnits="userSpaceOnUse">
<stop stop-color="#808080" stop-opacity="0.25"/>
<stop offset="0.54" stop-color="#808080" stop-opacity="0.12"/>
<stop offset="1" stop-color="#808080" stop-opacity="0.1"/>
</linearGradient>
<linearGradient id="paint3_linear_0_138" x1="171" y1="170.087" x2="171.415" y2="81.2176" gradientUnits="userSpaceOnUse">
<stop stop-color="#808080" stop-opacity="0.25"/>
<stop offset="0.54" stop-color="#808080" stop-opacity="0.12"/>
<stop offset="1" stop-color="#808080" stop-opacity="0.1"/>
</linearGradient>
<linearGradient id="paint4_linear_0_138" x1="142.475" y1="242.853" x2="142.579" y2="220.737" gradientUnits="userSpaceOnUse">
<stop stop-color="#808080" stop-opacity="0.25"/>
<stop offset="0.54" stop-color="#808080" stop-opacity="0.12"/>
<stop offset="1" stop-color="#808080" stop-opacity="0.1"/>
</linearGradient>
<linearGradient id="paint5_linear_0_138" x1="62.4857" y1="137.937" x2="62.6705" y2="98.3838" gradientUnits="userSpaceOnUse">
<stop stop-color="#808080" stop-opacity="0.25"/>
<stop offset="0.54" stop-color="#808080" stop-opacity="0.12"/>
<stop offset="1" stop-color="#808080" stop-opacity="0.1"/>
</linearGradient>
<linearGradient id="paint6_linear_0_138" x1="60.794" y1="170.717" x2="60.958" y2="135.609" gradientUnits="userSpaceOnUse">
<stop stop-color="#808080" stop-opacity="0.25"/>
<stop offset="0.54" stop-color="#808080" stop-opacity="0.12"/>
<stop offset="1" stop-color="#808080" stop-opacity="0.1"/>
</linearGradient>
<linearGradient id="paint7_linear_0_138" x1="113.409" y1="122.773" x2="113.679" y2="65.1134" gradientUnits="userSpaceOnUse">
<stop stop-color="#808080" stop-opacity="0.25"/>
<stop offset="0.54" stop-color="#808080" stop-opacity="0.12"/>
<stop offset="1" stop-color="#808080" stop-opacity="0.1"/>
</linearGradient>
<linearGradient id="paint8_linear_0_138" x1="65.5801" y1="105.404" x2="65.7853" y2="61.4824" gradientUnits="userSpaceOnUse">
<stop stop-color="#808080" stop-opacity="0.25"/>
<stop offset="0.54" stop-color="#808080" stop-opacity="0.12"/>
<stop offset="1" stop-color="#808080" stop-opacity="0.1"/>
</linearGradient>
</defs>
</svg>
