<?xml version="1.0" encoding="UTF-8"?>
<svg id="a" data-name="Layer 1" xmlns="http://www.w3.org/2000/svg" width="16.93" height="15" viewBox="0 0 16.93 15">
  <g style="opacity: .4;">
    <path d="M8.55,.26c-1.64,0-3.96,.35-4.82,.7-.95,.35-1.55,.63-1.72,1.4l-.77,4.41v6.09h1.21v.98c0,1.19,2.07,1.19,2.07,0v-.98h7.92v.98c0,1.19,2.07,1.19,2.07,0v-.98h1.21V6.77l-.69-4.41c-.17-.77-.77-1.12-1.72-1.4-.95-.35-3.19-.7-4.82-.7" style="fill: #c8c7c6;"/>
    <path d="M13.46,10.96c.52,0,1.03-.35,1.03-.84,0-.42-.43-.84-1.03-.84-.52,0-1.03,.35-1.03,.84,0,.49,.43,.84,1.03,.84Z" style="fill: #f1f1f3;"/>
    <path d="M3.47,10.96c-.52,0-1.03-.35-1.03-.84,0-.42,.43-.84,1.03-.84,.52,0,1.03,.35,1.03,.84,0,.49-.43,.84-1.03,.84Z" style="fill: #f1f1f3;"/>
    <path d="M8.38,2.08h-2.93c-.6,0-.6-.7,0-.7h6.03c.6,0,.6,.7,0,.7h-3.1Z" style="fill: #f1f1f3;"/>
    <path d="M8.38,2.78H3.9c-.6,0-.77,.28-.86,.63l-.52,3.22c-.09,.28,.09,.63,.6,.63H13.89c.52,0,.6-.28,.6-.63l-.52-3.22c-.09-.42-.26-.63-.86-.63h-4.74Z" style="fill: #f1f1f3;"/>
  </g>
</svg>