<?xml version="1.0" encoding="UTF-8"?>
<svg id="Layer_1" data-name="Layer 1" xmlns="http://www.w3.org/2000/svg" width="14.44" height="11.15" viewBox="0 0 14.44 11.15">
  <g>
    <path d="M4.7,.3s.02,0,.02,0c.01,0,.02,0,.03,0h-.05Z" style="fill: #002f40;"/>
    <path d="M8.78,1.85c-.11-.57-.48-.83-1.08-1.03-.59-.26-1.97-.51-2.99-.52-1.02,0-2.45,.26-2.98,.52-.59,.26-.97,.47-1.08,1.03L.18,5.1v4.5H.94v.72c0,.88,1.29,.88,1.29,0v-.72H7.17v.72c0,.88,1.29,.88,1.29,0v-.72h.75V5.1l-.43-3.26ZM2.82,1.12h3.76c.38,0,.38,.52,0,.52H2.82c-.38,0-.38-.52,0-.52Zm-1.23,7.07c-.32,0-.65-.26-.65-.62,0-.31,.27-.62,.65-.62,.32,0,.65,.26,.65,.62,0,.36-.27,.62-.65,.62Zm6.24,0c-.38,0-.65-.26-.65-.62,0-.36,.32-.62,.65-.62,.38,0,.65,.31,.65,.62,0,.36-.32,.62-.65,.62Zm.27-2.74H1.37c-.32,0-.43-.26-.38-.47l.32-2.38c.05-.26,.16-.47,.54-.47H7.61c.38,0,.48,.16,.54,.47l.32,2.38c0,.26-.05,.47-.38,.47Z" style="fill: #002f40;"/>
  </g>
  <g>
    <path d="M12.3,7.39c.19,.53,.37,1.03,.55,1.54,.07,.21,.14,.41,.22,.62,.08,.22,.28,.32,.48,.25,.21-.07,.3-.27,.22-.5-.27-.76-.54-1.52-.81-2.28-.03-.08-.04-.14,.02-.22,.09-.11,.11-.25,.08-.39-.07-.37-.13-.74-.2-1.1,0-.05-.02-.11-.02-.18,.2,.09,.39,.15,.44,.4,.06,.29,.17,.57,.26,.85,.07,.22,.26,.33,.47,.26,.18-.05,.3-.24,.25-.41-.13-.45-.27-.89-.42-1.33-.02-.07-.1-.14-.17-.18-.41-.23-.83-.45-1.24-.66-.18-.09-.37-.07-.53,.05-.16,.12-.26,.3-.2,.49,.07,.23-.02,.34-.19,.47-.28,.2-.54,.42-.81,.64-.21,.17-.24,.38-.1,.56,.14,.17,.36,.18,.56,.02,.24-.19,.48-.38,.73-.58,.05,.3,.11,.58,.15,.87,0,.04-.03,.1-.06,.13-.23,.21-.47,.42-.71,.62-.1,.09-.16,.19-.17,.33-.03,.59-.06,1.18-.09,1.78,0,.22,.15,.39,.35,.4,.22,.01,.38-.14,.39-.37,.03-.51,.05-1.01,.07-1.52,0-.09,.03-.15,.1-.21,.13-.1,.25-.21,.39-.33Z" style="fill: #002f40;"/>
    <path d="M11.67,3.93c.38,0,.69-.31,.7-.7,0-.39-.31-.7-.7-.7-.38,0-.69,.31-.7,.7,0,.39,.31,.7,.7,.7Z" style="fill: #002f40;"/>
  </g>
</svg>