<?xml version="1.0" encoding="UTF-8"?>
<svg id="Layer_1" data-name="Layer 1" xmlns="http://www.w3.org/2000/svg" width="21" height="21" viewBox="0 0 21 21">
  <path d="M18.29,3.25c-.21-1.09-.92-1.58-2.06-1.96-1.12-.5-3.76-.97-5.7-.99-1.94,0-4.67,.5-5.68,.99-1.12,.5-1.85,.9-2.06,1.96l-.9,6.2v8.58h1.45v1.37c0,1.68,2.46,1.68,2.46,0v-1.37H15.22v1.37c0,1.68,2.46,1.68,2.46,0v-1.37h1.43V9.45l-.82-6.21v.02ZM6.93,1.86h7.17c.72,0,.72,.99,0,.99H6.93c-.72,0-.72-.99,0-.99Zm-2.34,13.48c-.61,0-1.24-.5-1.24-1.18,0-.59,.51-1.18,1.24-1.18,.61,0,1.24,.5,1.24,1.18s-.51,1.18-1.24,1.18Zm11.9,0c-.72,0-1.24-.5-1.24-1.18s.61-1.18,1.24-1.18c.72,0,1.24,.59,1.24,1.18,0,.69-.61,1.18-1.24,1.18Zm.51-5.22H4.16c-.61,0-.82-.5-.72-.9l.61-4.54c.1-.5,.31-.9,1.03-.9h10.98c.72,0,.92,.31,1.03,.9l.61,4.54c0,.5-.1,.9-.72,.9h.02Z" fill="#002f40"/>
</svg>