<?xml version="1.0" encoding="UTF-8"?>
<svg id="Layer_1" data-name="Layer 1" xmlns="http://www.w3.org/2000/svg" width="23.74" height="22" viewBox="0 0 23.74 22">
  <path d="M16.78,21.03H6.96c-1.7,0-3.11-1.39-3.11-3.11V4.08c0-1.7,1.39-3.11,3.11-3.11h9.83c1.7,0,3.11,1.39,3.11,3.11v13.84c0,1.71-1.39,3.11-3.11,3.11Z" style="fill: none; stroke: #000; stroke-linecap: round; stroke-linejoin: round; stroke-width: 1.56px;"/>
  <path d="M18.39,12H5.35c-.83,0-1.5-.67-1.5-1.5v-2.01c0-.83,.67-1.5,1.5-1.5h13.04c.83,0,1.5,.67,1.5,1.5v2.01c0,.83-.67,1.5-1.5,1.5Z" style="fill: none; stroke: #000; stroke-linecap: round; stroke-linejoin: round; stroke-width: 1.2px;"/>
  <path d="M8.35,16.72h0" style="fill: none; stroke: #000; stroke-linecap: round; stroke-linejoin: round; stroke-width: 2.01px;"/>
  <path d="M15.37,16.72h0" style="fill: none; stroke: #000; stroke-linecap: round; stroke-linejoin: round; stroke-width: 2.01px;"/>
  <path d="M9.36,3.98h5.01" style="fill: none; stroke: #000; stroke-linecap: round; stroke-linejoin: round; stroke-width: 1.2px;"/>
</svg>