<?xml version="1.0" encoding="utf-8"?>
<!-- Generator: Adobe Illustrator 26.5.0, SVG Export Plug-In . SVG Version: 6.00 Build 0)  -->
<svg version="1.1" id="Layer_1" xmlns="http://www.w3.org/2000/svg" xmlns:xlink="http://www.w3.org/1999/xlink" x="0px" y="0px"
	 viewBox="0 0 21 21" style="enable-background:new 0 0 21 21;" xml:space="preserve">
<style type="text/css">
	.st0{opacity:0.4;}
	.st1{fill:#C7C7C7;}
	.st2{fill:#F0F1F3;}
</style>
<g class="st0">
	<path class="st1" d="M10.6,0.2C8.7,0.2,6,0.7,5,1.2c-1.1,0.5-1.8,0.9-2,2L2.1,9.5v8.7h1.4v1.4c0,1.7,2.4,1.7,2.4,0v-1.4h9.2v1.4
		c0,1.7,2.4,1.7,2.4,0v-1.4h1.4V9.5l-0.8-6.3c-0.2-1.1-0.9-1.6-2-2c-1.1-0.5-3.7-1-5.6-1"/>
	<path class="st2" d="M16.3,15.5c0.6,0,1.2-0.5,1.2-1.2c0-0.6-0.5-1.2-1.2-1.2c-0.6,0-1.2,0.5-1.2,1.2C15.1,15,15.6,15.5,16.3,15.5z
		"/>
	<path class="st2" d="M4.7,15.5c-0.6,0-1.2-0.5-1.2-1.2c0-0.6,0.5-1.2,1.2-1.2c0.6,0,1.2,0.5,1.2,1.2C5.9,15,5.4,15.5,4.7,15.5z"/>
	<path class="st2" d="M10.4,2.8H7c-0.7,0-0.7-1,0-1H14c0.7,0,0.7,1,0,1H10.4z"/>
	<path class="st2" d="M10.4,3.8H5.2c-0.7,0-0.9,0.4-1,0.9L3.6,9.3c-0.1,0.4,0.1,0.9,0.7,0.9h12.5c0.6,0,0.7-0.4,0.7-0.9l-0.6-4.6
		c-0.1-0.6-0.3-0.9-1-0.9H10.4z"/>
</g>
</svg>
