<svg width="16" height="16" viewBox="0 0 16 16" fill="none" xmlns="http://www.w3.org/2000/svg">
<path d="M10 8C10 9.10267 9.10267 10 8 10C6.89733 10 6 9.10267 6 8C6 6.89733 6.89733 6 8 6C9.10267 6 10 6.89733 10 8ZM16 8C16 8.36867 15.7013 8.66667 15.3333 8.66667H14.6333C14.3193 11.8113 11.8113 14.32 8.66667 14.6333V15.3333C8.66667 15.702 8.368 16 8 16C7.632 16 7.33333 15.702 7.33333 15.3333V14.6333C4.18867 14.3193 1.68 11.8113 1.36667 8.66667H0.666667C0.298667 8.66667 0 8.36867 0 8C0 7.63133 0.298667 7.33333 0.666667 7.33333H1.36667C1.68 4.18867 4.18867 1.68 7.33333 1.36667V0.666667C7.33333 0.298 7.632 0 8 0C8.368 0 8.66667 0.298 8.66667 0.666667V1.36667C11.8113 1.68067 14.32 4.18867 14.6333 7.33333H15.3333C15.7013 7.33333 16 7.63133 16 8ZM11.3333 8C11.3333 6.162 9.838 4.66667 8 4.66667C6.162 4.66667 4.66667 6.162 4.66667 8C4.66667 9.838 6.162 11.3333 8 11.3333C9.838 11.3333 11.3333 9.838 11.3333 8Z" fill="white"/>
</svg>
