<svg width="42" height="42" viewBox="0 0 42 42" fill="none" xmlns="http://www.w3.org/2000/svg">
<path d="M16.6436 1.1199C10.9191 2.33323 5.44356 6.59546 2.89245 11.8221C-0.0631077 17.8577 -0.0631077 24.1421 2.89245 30.1777C4.69689 33.8799 8.11911 37.3021 11.8213 39.1066C17.8569 42.0621 24.1413 42.0621 30.1769 39.1066C35.4969 36.5244 39.6969 31.0488 40.8791 25.1377C41.5013 22.0888 41.5013 19.8799 40.8791 16.8932C38.5769 5.78657 27.8436 -1.21343 16.6436 1.1199ZM24.8569 4.1999C28.1236 4.97768 30.7058 6.4399 33.1325 8.86657C35.4036 11.1377 37.208 14.1866 37.5502 16.3643C37.8925 18.3866 37.0836 18.4799 31.8258 16.9866C23.4569 14.6221 18.5413 14.7155 8.46134 17.391C6.968 17.7955 5.53689 18.0132 5.07023 17.8888C4.35467 17.7332 4.29245 17.6088 4.448 16.4266C4.91467 12.8488 9.14578 7.62212 13.0969 5.66212C16.9547 3.79546 20.968 3.29768 24.8569 4.1999ZM23.0213 18.0132C23.4569 18.2932 24.048 19.071 24.3591 19.6932C24.8258 20.6577 24.888 21.031 24.608 21.871C24.1724 23.1155 23.2391 24.0799 21.9324 24.5777C21.2169 24.8577 20.7502 24.8266 19.6613 24.391C18.5413 23.9866 18.168 23.6444 17.6702 22.4932C16.9858 20.9066 17.2347 19.5688 18.448 18.4177C19.9102 17.0488 21.4658 16.8932 23.0213 18.0132ZM9.51911 24.4221C12.2258 25.3243 13.8747 26.3199 15.0569 27.6888C16.9858 30.0221 18.5413 34.3466 18.168 36.5244L17.9813 37.7066L16.5813 37.551C13.408 37.2088 8.89689 33.9732 6.56356 30.3955C4.91467 27.9377 3.82578 24.7332 4.35467 24.111C4.91467 23.4266 6.90578 23.551 9.51911 24.4221ZM37.8613 24.0488C38.1413 24.3288 36.8036 28.1866 35.9013 29.7421C33.9413 33.071 30.5191 35.9021 26.7858 37.2399C24.888 37.9555 24.7947 37.9555 24.2036 37.4266C23.6747 36.9599 23.6124 36.6177 23.768 35.1866C24.0169 33.0088 25.5724 29.3377 26.8791 27.8132C28.7769 25.6044 33.4436 23.551 36.1813 23.7688C36.9902 23.831 37.7369 23.9555 37.8613 24.0488Z" fill="#022E2F"/>
</svg>
