<?xml version="1.0" encoding="utf-8"?>
<!-- Generator: Adobe Illustrator 26.5.0, SVG Export Plug-In . SVG Version: 6.00 Build 0)  -->
<svg version="1.1" id="Layer_1" xmlns="http://www.w3.org/2000/svg" xmlns:xlink="http://www.w3.org/1999/xlink" x="0px" y="0px"
	 viewBox="0 0 21.9 20.3" style="enable-background:new 0 0 21.9 20.3;" xml:space="preserve">
<g>
	<path d="M11,17.8c-3.2,0-6.4,0-9.6,0c-1.1,0-1.2-0.2-1.2-1.5c0-1,0-2,0-3.1c0-0.8,0.2-1.2,0.9-1.4c0.5-0.2,1.1-0.4,1.4-0.8
		c1.1-1.3,0.4-3.5-1-3.9C0.3,6.7,0.1,6.5,0.1,5c0-1,0-2,0-3c0-0.8,0.3-1.2,1-1.2c6.5,0,13.1,0,19.6,0c0.7,0,1,0.4,1,1.3
		c0,1-0.1,2,0,3c0.1,1.1-0.4,1.6-1.2,1.8C19.7,7.3,19,8.2,19,9.2c0,1.1,0.6,2,1.5,2.3c0.8,0.3,1.3,0.7,1.2,1.9c-0.1,1,0,2,0,3
		c0,1-0.3,1.4-1.1,1.4C17.4,17.7,14.2,17.8,11,17.8L11,17.8z M14.4,15.7c1.5,0,3.1,0,4.6,0c0.4,0,1-0.3,1-0.5
		c0.1-0.7,0.3-1.5-0.6-1.9c-1.8-0.9-2.5-3.8-1.6-6c0.4-0.9,0.9-1.6,1.7-1.9c0.8-0.4,0.6-1.2,0.6-1.8C20,2.7,19.5,3,19.1,3
		c-3.2,0-6.3,0-9.5,0C9,2.9,8.7,3.1,8.7,4c0,3.5,0,7.1,0,10.6c0,0.9,0.3,1.1,0.9,1.1C11.2,15.7,12.8,15.8,14.4,15.7L14.4,15.7z
		 M7,9.3c0-1.8,0-3.6,0-5.4c0-0.8-0.2-1-0.8-1C5.1,3,4,2.9,2.8,3C2.5,3,1.9,3.2,1.9,3.4C1.8,4.1,1.7,4.9,2.4,5.2
		c1.5,0.8,2.2,2.2,2.1,4.3c-0.1,1.9-0.9,3.1-2.3,3.9c-0.7,0.4-0.4,1.2-0.4,1.8c0,0.2,0.5,0.5,0.7,0.5c1.2,0.1,2.4,0,3.6,0
		c0.6,0,0.8-0.3,0.8-1C7,12.9,7,11.1,7,9.3L7,9.3z"/>
	<path d="M13.1,12.3c-0.7,0-1.5,0-2.2,0c-0.6,0-1.1-0.2-1.1-1.1c0-0.9,0.5-1.1,1.1-1c1.6,0,3.1,0,4.7,0c0.6,0,1.1,0.3,1.1,1
		c0,0.8-0.5,1.1-1,1.1C14.8,12.3,14,12.3,13.1,12.3z"/>
	<path d="M13.2,8.4c-0.8,0-1.6,0-2.4,0c-0.6,0-1-0.3-1-1c0-0.7,0.4-1.1,0.9-1.1c1.7-0.1,3.3-0.1,5,0c0.5,0,1.1,0.3,1,1.1
		c-0.1,0.8-0.5,1-1.1,1C14.8,8.3,14,8.4,13.2,8.4z"/>
</g>
</svg>
